<svg xmlns="http://www.w3.org/2000/svg" width="75" height="72" fill="none" viewBox="0 0 75 72"><path fill="#83b3d3" d="M71 47.7H5.2A4 4 0 0 0 1 52v3.5c0 2.4 1.9 4.3 4.1 4.3h1v1.1A10 10 0 0 0 15.5 71h44.7c5.4 0 9.7-4.5 9.7-10.1v-1.1h.9c2.3 0 4-1.9 4-4.3V52a4 4 0 0 0-3.8-4.3m-3.8 13.2c0 3.9-3 7-6.8 7H15.6a7 7 0 0 1-6.7-7v-1.1h58.3zm5-5.4q-.1 1.2-1.1 1.3H5q-1.2-.1-1.3-1.3V52Q4 50.8 5 50.7h66q1.1.1 1.2 1.3zM16.6 39.4l5.5 4.1 5.3-4.1 5.3 4.1 5.3-4.1 5.4 4.1 5.3-4.1 5.3 4.1 5.4-4.1 5.4 4.1 6.2-4.7-1.7-2.5-4.5 3.4-5.4-4.1-5.4 4.1-5.3-4.1-5.3 4.1-5.4-4.1-5.3 4.1-5.3-4.1-5.3 4.1-5.5-4.1-5.3 4.1-4.5-3.4-1.7 2.5 6.2 4.7zM9 32.5h61v-3.1C69.5 13.7 55.4 1 38 1S6.8 13.7 6 29.5v1.2l.1 1.8zM38 4c15.7 0 28.6 11.3 29.2 25.5H9C9.6 15.4 22.5 4 38 4"/><path fill="#83b3d3" d="M38 18.3a2 2 0 0 0 2-2 2 2 0 0 0-2-2 2 2 0 0 0-1.8 2q.1 1.8 1.9 2M30.3 13.2a2 2 0 0 0 1.9-2 2 2 0 0 0-2-2 2 2 0 0 0-1.8 2q.1 1.8 1.9 2M45.8 13.2a2 2 0 0 0 2-2 2 2 0 0 0-2-2 2 2 0 0 0-1.9 2q.2 1.8 2 2"/></svg>