<svg xmlns="http://www.w3.org/2000/svg" width="76" height="72" fill="none" viewBox="0 0 76 72"><path fill="#83b3d3" d="M30.6 65h16V41.2h-16zm3-20.9h10v18h-10z"/><path fill="#83b3d3" d="m73.9 39.3 2.1-2.1-10-9.9V0H52.2v13.6L38.4 0 1 37.2l2.1 2.1 7.8-7.8v37.6H7V72h64.2v-2.9H66V31.5zM63 69.1H14V28.5L38.4 4.1 63 28.5zm0-44.7-7.9-7.9V2.9h8z"/><path fill="#83b3d3" d="M30.8 27.1c0 4.3 3.5 7.7 7.8 7.7s7.8-3.5 7.8-7.7-3.5-7.7-7.8-7.7a7.7 7.7 0 0 0-7.8 7.7m7.9-5a5 5 0 0 1 5 4.9 5 5 0 0 1-5 4.9 5 5 0 0 1-5-4.9 5 5 0 0 1 5-4.9M21 41.2h-3v3.9h3zM26.9 41.2h-3v3.9h3zM21 47.2h-3v3.9h3zM26.9 47.2h-3v3.9h3zM53 41.2h-3v3.9h3zM59 41.2h-3v3.9h3zM53 47.2h-3v3.9h3zM59 47.2h-3v3.9h3z"/></svg>